<mxfile host="app.diagrams.net" modified="2022-08-09T10:45:45.979Z" agent="5.0 (Windows NT 10.0; Win64; x64) AppleWebKit/537.36 (KHTML, like Gecko) Chrome/104.0.0.0 Safari/537.36" etag="J37BB_To-nE5R4TOn4v3" version="20.2.3" type="github">
  <diagram id="q_J6skKwCC8pgn5MYPBL" name="Page-1">
    <mxGraphModel dx="1185" dy="662" grid="1" gridSize="10" guides="1" tooltips="1" connect="1" arrows="1" fold="1" page="1" pageScale="1" pageWidth="850" pageHeight="1100" math="0" shadow="0">
      <root>
        <mxCell id="0" />
        <mxCell id="1" parent="0" />
        <mxCell id="d9SetOEvN1QB_kiKPYfy-57" style="edgeStyle=orthogonalEdgeStyle;rounded=0;orthogonalLoop=1;jettySize=auto;html=1;" edge="1" parent="1" source="d9SetOEvN1QB_kiKPYfy-1">
          <mxGeometry relative="1" as="geometry">
            <mxPoint x="1170" y="449" as="targetPoint" />
          </mxGeometry>
        </mxCell>
        <mxCell id="d9SetOEvN1QB_kiKPYfy-1" value="Users/Shukran" style="sketch=0;aspect=fixed;pointerEvents=1;shadow=0;dashed=0;html=1;strokeColor=none;labelPosition=center;verticalLabelPosition=bottom;verticalAlign=top;align=center;shape=mxgraph.mscae.enterprise.user_permissions;fillColor=#0078D7;" vertex="1" parent="1">
          <mxGeometry x="1240" y="424" width="47" height="50" as="geometry" />
        </mxCell>
        <mxCell id="d9SetOEvN1QB_kiKPYfy-56" style="edgeStyle=orthogonalEdgeStyle;rounded=0;orthogonalLoop=1;jettySize=auto;html=1;" edge="1" parent="1" source="d9SetOEvN1QB_kiKPYfy-3" target="d9SetOEvN1QB_kiKPYfy-34">
          <mxGeometry relative="1" as="geometry" />
        </mxCell>
        <mxCell id="d9SetOEvN1QB_kiKPYfy-3" value="Current Email Server&lt;br&gt;outlook.office365.com&lt;br&gt;priority: 15" style="sketch=0;points=[[0,0,0],[0.25,0,0],[0.5,0,0],[0.75,0,0],[1,0,0],[0,1,0],[0.25,1,0],[0.5,1,0],[0.75,1,0],[1,1,0],[0,0.25,0],[0,0.5,0],[0,0.75,0],[1,0.25,0],[1,0.5,0],[1,0.75,0]];outlineConnect=0;fontColor=#232F3E;gradientColor=#4D72F3;gradientDirection=north;fillColor=#3334B9;strokeColor=#ffffff;dashed=0;verticalLabelPosition=bottom;verticalAlign=top;align=center;html=1;fontSize=12;fontStyle=0;aspect=fixed;shape=mxgraph.aws4.resourceIcon;resIcon=mxgraph.aws4.simple_email_service;" vertex="1" parent="1">
          <mxGeometry x="1224.5" y="583.5" width="78" height="78" as="geometry" />
        </mxCell>
        <mxCell id="d9SetOEvN1QB_kiKPYfy-4" value="New Email Server&lt;br&gt;mail.shukran.com.bd&lt;br&gt;Priority: 0" style="sketch=0;points=[[0,0,0],[0.25,0,0],[0.5,0,0],[0.75,0,0],[1,0,0],[0,1,0],[0.25,1,0],[0.5,1,0],[0.75,1,0],[1,1,0],[0,0.25,0],[0,0.5,0],[0,0.75,0],[1,0.25,0],[1,0.5,0],[1,0.75,0]];outlineConnect=0;fontColor=#232F3E;gradientColor=#FF5252;gradientDirection=north;fillColor=#C7131F;strokeColor=#ffffff;dashed=0;verticalLabelPosition=bottom;verticalAlign=top;align=center;html=1;fontSize=12;fontStyle=0;aspect=fixed;shape=mxgraph.aws4.resourceIcon;resIcon=mxgraph.aws4.simple_email_service;" vertex="1" parent="1">
          <mxGeometry x="1071.5" y="414" width="100" height="100" as="geometry" />
        </mxCell>
        <mxCell id="d9SetOEvN1QB_kiKPYfy-15" style="edgeStyle=orthogonalEdgeStyle;rounded=0;orthogonalLoop=1;jettySize=auto;html=1;" edge="1" parent="1" source="d9SetOEvN1QB_kiKPYfy-5" target="d9SetOEvN1QB_kiKPYfy-21">
          <mxGeometry relative="1" as="geometry">
            <mxPoint x="670" y="644" as="targetPoint" />
            <Array as="points">
              <mxPoint x="640" y="624" />
              <mxPoint x="640" y="624" />
            </Array>
          </mxGeometry>
        </mxCell>
        <mxCell id="d9SetOEvN1QB_kiKPYfy-20" value="Inbound&lt;br&gt;Emails" style="edgeLabel;html=1;align=center;verticalAlign=middle;resizable=0;points=[];" vertex="1" connectable="0" parent="d9SetOEvN1QB_kiKPYfy-15">
          <mxGeometry x="-0.0951" relative="1" as="geometry">
            <mxPoint x="-6" as="offset" />
          </mxGeometry>
        </mxCell>
        <mxCell id="d9SetOEvN1QB_kiKPYfy-5" value="Email Senders" style="sketch=0;pointerEvents=1;shadow=0;dashed=0;html=1;strokeColor=none;labelPosition=center;verticalLabelPosition=bottom;verticalAlign=top;align=center;fillColor=#505050;shape=mxgraph.mscae.intune.user_group" vertex="1" parent="1">
          <mxGeometry x="450" y="604" width="50" height="37" as="geometry" />
        </mxCell>
        <mxCell id="d9SetOEvN1QB_kiKPYfy-23" style="edgeStyle=orthogonalEdgeStyle;rounded=0;orthogonalLoop=1;jettySize=auto;html=1;" edge="1" parent="1" source="d9SetOEvN1QB_kiKPYfy-21" target="d9SetOEvN1QB_kiKPYfy-22">
          <mxGeometry relative="1" as="geometry">
            <Array as="points">
              <mxPoint x="870" y="604" />
              <mxPoint x="870" y="604" />
            </Array>
          </mxGeometry>
        </mxCell>
        <mxCell id="d9SetOEvN1QB_kiKPYfy-24" value="DNS Query" style="edgeLabel;html=1;align=center;verticalAlign=middle;resizable=0;points=[];" vertex="1" connectable="0" parent="d9SetOEvN1QB_kiKPYfy-23">
          <mxGeometry x="-0.3004" y="1" relative="1" as="geometry">
            <mxPoint x="21" y="1" as="offset" />
          </mxGeometry>
        </mxCell>
        <mxCell id="d9SetOEvN1QB_kiKPYfy-32" style="edgeStyle=orthogonalEdgeStyle;rounded=0;orthogonalLoop=1;jettySize=auto;html=1;" edge="1" parent="1" source="d9SetOEvN1QB_kiKPYfy-21" target="d9SetOEvN1QB_kiKPYfy-4">
          <mxGeometry relative="1" as="geometry">
            <Array as="points">
              <mxPoint x="710" y="454" />
            </Array>
          </mxGeometry>
        </mxCell>
        <mxCell id="d9SetOEvN1QB_kiKPYfy-33" value="New Inbound Emails" style="edgeLabel;html=1;align=center;verticalAlign=middle;resizable=0;points=[];" vertex="1" connectable="0" parent="d9SetOEvN1QB_kiKPYfy-32">
          <mxGeometry x="-0.2304" y="-2" relative="1" as="geometry">
            <mxPoint x="111" y="-2" as="offset" />
          </mxGeometry>
        </mxCell>
        <mxCell id="d9SetOEvN1QB_kiKPYfy-21" value="Sender Email Server&lt;br&gt;" style="sketch=0;outlineConnect=0;fontColor=#232F3E;gradientColor=none;strokeColor=#ffffff;fillColor=#232F3E;dashed=0;verticalLabelPosition=middle;verticalAlign=bottom;align=center;html=1;whiteSpace=wrap;fontSize=10;fontStyle=1;spacing=3;shape=mxgraph.aws4.productIcon;prIcon=mxgraph.aws4.simple_email_service;" vertex="1" parent="1">
          <mxGeometry x="670" y="576.25" width="80" height="110" as="geometry" />
        </mxCell>
        <mxCell id="d9SetOEvN1QB_kiKPYfy-25" style="edgeStyle=orthogonalEdgeStyle;rounded=0;orthogonalLoop=1;jettySize=auto;html=1;" edge="1" parent="1" source="d9SetOEvN1QB_kiKPYfy-22" target="d9SetOEvN1QB_kiKPYfy-21">
          <mxGeometry relative="1" as="geometry">
            <Array as="points">
              <mxPoint x="810" y="644" />
              <mxPoint x="810" y="644" />
            </Array>
          </mxGeometry>
        </mxCell>
        <mxCell id="d9SetOEvN1QB_kiKPYfy-26" value="DNS Resolve" style="edgeLabel;html=1;align=center;verticalAlign=middle;resizable=0;points=[];" vertex="1" connectable="0" parent="d9SetOEvN1QB_kiKPYfy-25">
          <mxGeometry x="-0.256" y="-1" relative="1" as="geometry">
            <mxPoint x="-5" y="-2" as="offset" />
          </mxGeometry>
        </mxCell>
        <mxCell id="d9SetOEvN1QB_kiKPYfy-49" style="edgeStyle=orthogonalEdgeStyle;rounded=0;orthogonalLoop=1;jettySize=auto;html=1;" edge="1" parent="1" source="d9SetOEvN1QB_kiKPYfy-22" target="d9SetOEvN1QB_kiKPYfy-34">
          <mxGeometry relative="1" as="geometry">
            <Array as="points">
              <mxPoint x="1060" y="634" />
              <mxPoint x="1060" y="634" />
            </Array>
          </mxGeometry>
        </mxCell>
        <mxCell id="d9SetOEvN1QB_kiKPYfy-50" value="DNS Resolve" style="edgeLabel;html=1;align=center;verticalAlign=middle;resizable=0;points=[];" vertex="1" connectable="0" parent="d9SetOEvN1QB_kiKPYfy-49">
          <mxGeometry x="-0.144" y="1" relative="1" as="geometry">
            <mxPoint x="11" y="-2" as="offset" />
          </mxGeometry>
        </mxCell>
        <mxCell id="d9SetOEvN1QB_kiKPYfy-22" value="" style="verticalLabelPosition=bottom;sketch=0;aspect=fixed;html=1;verticalAlign=top;strokeColor=none;align=center;outlineConnect=0;shape=mxgraph.citrix.dns_server;" vertex="1" parent="1">
          <mxGeometry x="890" y="576.25" width="76.5" height="92.5" as="geometry" />
        </mxCell>
        <mxCell id="d9SetOEvN1QB_kiKPYfy-35" style="edgeStyle=orthogonalEdgeStyle;rounded=0;orthogonalLoop=1;jettySize=auto;html=1;" edge="1" parent="1" source="d9SetOEvN1QB_kiKPYfy-34" target="d9SetOEvN1QB_kiKPYfy-22">
          <mxGeometry relative="1" as="geometry">
            <Array as="points">
              <mxPoint x="970" y="604" />
              <mxPoint x="970" y="604" />
            </Array>
          </mxGeometry>
        </mxCell>
        <mxCell id="d9SetOEvN1QB_kiKPYfy-37" value="DNS Query" style="edgeLabel;html=1;align=center;verticalAlign=middle;resizable=0;points=[];" vertex="1" connectable="0" parent="d9SetOEvN1QB_kiKPYfy-35">
          <mxGeometry x="-0.2711" y="-1" relative="1" as="geometry">
            <mxPoint x="-15" y="1" as="offset" />
          </mxGeometry>
        </mxCell>
        <mxCell id="d9SetOEvN1QB_kiKPYfy-54" style="edgeStyle=orthogonalEdgeStyle;rounded=0;orthogonalLoop=1;jettySize=auto;html=1;" edge="1" parent="1" source="d9SetOEvN1QB_kiKPYfy-34" target="d9SetOEvN1QB_kiKPYfy-4">
          <mxGeometry relative="1" as="geometry" />
        </mxCell>
        <mxCell id="d9SetOEvN1QB_kiKPYfy-34" value="Migration&lt;br&gt;Process" style="sketch=0;aspect=fixed;pointerEvents=1;shadow=0;dashed=0;html=1;strokeColor=none;labelPosition=center;verticalLabelPosition=bottom;verticalAlign=top;align=center;fillColor=#00188D;shape=mxgraph.mscae.enterprise.workstation_client" vertex="1" parent="1">
          <mxGeometry x="1090" y="591" width="63" height="63" as="geometry" />
        </mxCell>
      </root>
    </mxGraphModel>
  </diagram>
</mxfile>
